<?xml version="1.0" encoding="UTF-8" standalone="no"?>
<!DOCTYPE svg PUBLIC "-//W3C//DTD SVG 1.1//EN"
 "http://www.w3.org/Graphics/SVG/1.1/DTD/svg11.dtd">
<!-- Generated by graphviz version 2.38.0 (20140413.2041)
 -->
<!-- Title: largeRelationshipsDiagram Pages: 1 -->
<svg width="264pt" height="1127pt"
 viewBox="0.00 0.00 264.00 1126.50" xmlns="http://www.w3.org/2000/svg" xmlns:xlink="http://www.w3.org/1999/xlink">
<g id="graph0" class="graph" transform="scale(1 1) rotate(0) translate(4 1122.5)">
<title>largeRelationshipsDiagram</title>
<polygon fill="#ffffff" stroke="none" points="-4,4 -4,-1122.5 260,-1122.5 260,4 -4,4"/>
<!-- associations -->
<g id="node1" class="node"><title>associations</title>
<g id="a_node1"><a xlink:href="tables/associations.html" xlink:title="associations">
<polygon fill="#ffffff" stroke="none" points="21,-1037 21,-1105 84,-1105 84,-1037 21,-1037"/>
<polygon fill="#002856" stroke="none" points="21.5,-1088 21.5,-1105 84.5,-1105 84.5,-1088 21.5,-1088"/>
<polygon fill="none" stroke="black" points="21.5,-1088 21.5,-1105 84.5,-1105 84.5,-1088 21.5,-1088"/>
<text text-anchor="start" x="24.5" y="-1095" font-family="Lucida Sans,sans-serif" font-weight="bold" font-size="10.00" fill="#e0ded9">associations</text>
<polygon fill="#f3f3f3" stroke="none" points="21.5,-1071 21.5,-1088 84.5,-1088 84.5,-1071 21.5,-1071"/>
<polygon fill="none" stroke="black" points="21.5,-1071 21.5,-1088 84.5,-1088 84.5,-1071 21.5,-1071"/>
<text text-anchor="start" x="24.5" y="-1077" font-family="Lucida Sans,sans-serif" font-size="10.00">id</text>
<polygon fill="none" stroke="black" points="21.5,-1054 21.5,-1071 84.5,-1071 84.5,-1054 21.5,-1054"/>
<text text-anchor="start" x="24.5" y="-1060" font-family="Lucida Sans,sans-serif" font-size="10.00">name</text>
<polygon fill="none" stroke="black" points="21.5,-1037 21.5,-1054 84.5,-1054 84.5,-1037 21.5,-1037"/>
<text text-anchor="start" x="24.5" y="-1043" font-family="Lucida Sans,sans-serif" font-size="10.00">link</text>
</a>
</g>
</g>
<!-- collections -->
<g id="node2" class="node"><title>collections</title>
<g id="a_node2"><a xlink:href="tables/collections.html" xlink:title="collections">
<polygon fill="#ffffff" stroke="none" points="24,-4 24,-72 81,-72 81,-4 24,-4"/>
<polygon fill="#002856" stroke="none" points="24.5,-55 24.5,-72 81.5,-72 81.5,-55 24.5,-55"/>
<polygon fill="none" stroke="black" points="24.5,-55 24.5,-72 81.5,-72 81.5,-55 24.5,-55"/>
<text text-anchor="start" x="27.5" y="-62" font-family="Lucida Sans,sans-serif" font-weight="bold" font-size="10.00" fill="#e0ded9">collections</text>
<polygon fill="#f3f3f3" stroke="none" points="24.5,-38 24.5,-55 81.5,-55 81.5,-38 24.5,-38"/>
<polygon fill="none" stroke="black" points="24.5,-38 24.5,-55 81.5,-55 81.5,-38 24.5,-38"/>
<text text-anchor="start" x="27.5" y="-44" font-family="Lucida Sans,sans-serif" font-size="10.00">id</text>
<polygon fill="none" stroke="black" points="24.5,-21 24.5,-38 81.5,-38 81.5,-21 24.5,-21"/>
<text text-anchor="start" x="27.5" y="-27" font-family="Lucida Sans,sans-serif" font-size="10.00">name</text>
<polygon fill="none" stroke="black" points="24.5,-4 24.5,-21 81.5,-21 81.5,-4 24.5,-4"/>
<text text-anchor="start" x="27.5" y="-10" font-family="Lucida Sans,sans-serif" font-size="10.00">description</text>
</a>
</g>
</g>
<!-- methods -->
<g id="node3" class="node"><title>methods</title>
<g id="a_node3"><a xlink:href="tables/methods.html" xlink:title="methods">
<polygon fill="#ffffff" stroke="none" points="8,-93 8,-467 97,-467 97,-93 8,-93"/>
<polygon fill="#002856" stroke="none" points="8.5,-450 8.5,-467 97.5,-467 97.5,-450 8.5,-450"/>
<polygon fill="none" stroke="black" points="8.5,-450 8.5,-467 97.5,-467 97.5,-450 8.5,-450"/>
<text text-anchor="start" x="32" y="-457" font-family="Lucida Sans,sans-serif" font-weight="bold" font-size="10.00" fill="#e0ded9">methods</text>
<polygon fill="#f3f3f3" stroke="none" points="8.5,-433 8.5,-450 97.5,-450 97.5,-433 8.5,-433"/>
<polygon fill="none" stroke="black" points="8.5,-433 8.5,-450 97.5,-450 97.5,-433 8.5,-433"/>
<text text-anchor="start" x="11.5" y="-439" font-family="Lucida Sans,sans-serif" font-size="10.00">title</text>
<polygon fill="none" stroke="black" points="8.5,-416 8.5,-433 97.5,-433 97.5,-416 8.5,-416"/>
<text text-anchor="start" x="11.5" y="-422" font-family="Lucida Sans,sans-serif" font-size="10.00">url</text>
<polygon fill="none" stroke="black" points="8.5,-399 8.5,-416 97.5,-416 97.5,-399 8.5,-399"/>
<text text-anchor="start" x="11.5" y="-405" font-family="Lucida Sans,sans-serif" font-size="10.00">stage</text>
<polygon fill="none" stroke="black" points="8.5,-382 8.5,-399 97.5,-399 97.5,-382 8.5,-382"/>
<text text-anchor="start" x="11.5" y="-388" font-family="Lucida Sans,sans-serif" font-size="10.00">classification</text>
<polygon fill="none" stroke="black" points="8.5,-365 8.5,-382 97.5,-382 97.5,-365 8.5,-365"/>
<text text-anchor="start" x="11.5" y="-371" font-family="Lucida Sans,sans-serif" font-size="10.00">namemetaphone</text>
<polygon fill="none" stroke="black" points="8.5,-348 8.5,-365 97.5,-365 97.5,-348 8.5,-348"/>
<text text-anchor="start" x="11.5" y="-354" font-family="Lucida Sans,sans-serif" font-size="10.00">notation</text>
<polygon fill="none" stroke="black" points="8.5,-331 8.5,-348 97.5,-348 97.5,-331 8.5,-331"/>
<text text-anchor="start" x="11.5" y="-337" font-family="Lucida Sans,sans-serif" font-size="10.00">notationexpanded</text>
<polygon fill="none" stroke="black" points="8.5,-314 8.5,-331 97.5,-331 97.5,-314 8.5,-314"/>
<text text-anchor="start" x="11.5" y="-320" font-family="Lucida Sans,sans-serif" font-size="10.00">leadheadcode</text>
<polygon fill="none" stroke="black" points="8.5,-297 8.5,-314 97.5,-314 97.5,-297 8.5,-297"/>
<text text-anchor="start" x="11.5" y="-303" font-family="Lucida Sans,sans-serif" font-size="10.00">leadhead</text>
<polygon fill="none" stroke="black" points="8.5,-280 8.5,-297 97.5,-297 97.5,-280 8.5,-280"/>
<text text-anchor="start" x="11.5" y="-286" font-family="Lucida Sans,sans-serif" font-size="10.00">fchgroups</text>
<polygon fill="none" stroke="black" points="8.5,-263 8.5,-280 97.5,-280 97.5,-263 8.5,-263"/>
<text text-anchor="start" x="11.5" y="-269" font-family="Lucida Sans,sans-serif" font-size="10.00">lengthoflead</text>
<polygon fill="none" stroke="black" points="8.5,-246 8.5,-263 97.5,-263 97.5,-246 8.5,-246"/>
<text text-anchor="start" x="11.5" y="-252" font-family="Lucida Sans,sans-serif" font-size="10.00">numberofhunts</text>
<polygon fill="none" stroke="black" points="8.5,-229 8.5,-246 97.5,-246 97.5,-229 8.5,-229"/>
<text text-anchor="start" x="11.5" y="-235" font-family="Lucida Sans,sans-serif" font-size="10.00">little</text>
<polygon fill="none" stroke="black" points="8.5,-212 8.5,-229 97.5,-229 97.5,-212 8.5,-212"/>
<text text-anchor="start" x="11.5" y="-218" font-family="Lucida Sans,sans-serif" font-size="10.00">differential</text>
<polygon fill="none" stroke="black" points="8.5,-195 8.5,-212 97.5,-212 97.5,-195 8.5,-195"/>
<text text-anchor="start" x="11.5" y="-201" font-family="Lucida Sans,sans-serif" font-size="10.00">plain</text>
<polygon fill="none" stroke="black" points="8.5,-178 8.5,-195 97.5,-195 97.5,-178 8.5,-178"/>
<text text-anchor="start" x="11.5" y="-184" font-family="Lucida Sans,sans-serif" font-size="10.00">trebledodging</text>
<polygon fill="none" stroke="black" points="8.5,-161 8.5,-178 97.5,-178 97.5,-161 8.5,-161"/>
<text text-anchor="start" x="11.5" y="-167" font-family="Lucida Sans,sans-serif" font-size="10.00">palindromic</text>
<polygon fill="none" stroke="black" points="8.5,-144 8.5,-161 97.5,-161 97.5,-144 8.5,-144"/>
<text text-anchor="start" x="11.5" y="-150" font-family="Lucida Sans,sans-serif" font-size="10.00">doublesym</text>
<polygon fill="none" stroke="black" points="8.5,-127 8.5,-144 97.5,-144 97.5,-127 8.5,-127"/>
<text text-anchor="start" x="11.5" y="-133" font-family="Lucida Sans,sans-serif" font-size="10.00">rotational</text>
<polygon fill="none" stroke="black" points="8.5,-110 8.5,-127 97.5,-127 97.5,-110 8.5,-110"/>
<text text-anchor="start" x="11.5" y="-116" font-family="Lucida Sans,sans-serif" font-size="10.00">calls</text>
<polygon fill="none" stroke="black" points="8.5,-93 8.5,-110 97.5,-110 97.5,-93 8.5,-93"/>
<text text-anchor="start" x="11.5" y="-99" font-family="Lucida Sans,sans-serif" font-size="10.00">ruleoffs</text>
</a>
</g>
</g>
<!-- methods_collections -->
<g id="node4" class="node"><title>methods_collections</title>
<g id="a_node4"><a xlink:href="tables/methods_collections.html" xlink:title="methods_collections">
<polygon fill="#ffffff" stroke="none" points="146,-63.5 146,-148.5 248,-148.5 248,-63.5 146,-63.5"/>
<polygon fill="#002856" stroke="none" points="146,-131 146,-148 248,-148 248,-131 146,-131"/>
<polygon fill="none" stroke="black" points="146,-131 146,-148 248,-148 248,-131 146,-131"/>
<text text-anchor="start" x="149" y="-138" font-family="Lucida Sans,sans-serif" font-weight="bold" font-size="10.00" fill="#e0ded9">methods_collections</text>
<polygon fill="#f3f3f3" stroke="none" points="146,-114 146,-131 248,-131 248,-114 146,-114"/>
<polygon fill="none" stroke="black" points="146,-114 146,-131 248,-131 248,-114 146,-114"/>
<text text-anchor="start" x="149" y="-120" font-family="Lucida Sans,sans-serif" font-size="10.00">id</text>
<polygon fill="#f3f3f3" stroke="none" points="146,-97 146,-114 248,-114 248,-97 146,-97"/>
<polygon fill="none" stroke="black" points="146,-97 146,-114 248,-114 248,-97 146,-97"/>
<text text-anchor="start" x="149" y="-103" font-family="Lucida Sans,sans-serif" font-size="10.00">collection_id</text>
<polygon fill="#f3f3f3" stroke="none" points="146,-80 146,-97 248,-97 248,-80 146,-80"/>
<polygon fill="none" stroke="black" points="146,-80 146,-97 248,-97 248,-80 146,-80"/>
<text text-anchor="start" x="149" y="-86" font-family="Lucida Sans,sans-serif" font-size="10.00">method_title</text>
<polygon fill="none" stroke="black" points="146,-63 146,-80 248,-80 248,-63 146,-63"/>
<text text-anchor="start" x="149" y="-69" font-family="Lucida Sans,sans-serif" font-size="10.00">position</text>
</a>
</g>
</g>
<!-- methods_collections&#45;&gt;collections -->
<g id="edge1" class="edge"><title>methods_collections:collection_id:w&#45;&gt;collections:id:e</title>
<path fill="none" stroke="black" d="M130.882,-101.372C109.966,-88.6742 114.623,-47 82.5,-47"/>
<polygon fill="black" stroke="black" points="137.252,-103.009 144.104,-108.487 141.126,-104.004 145,-105 145,-105 145,-105 141.126,-104.004 145.896,-101.513 137.252,-103.009 137.252,-103.009"/>
<ellipse fill="none" stroke="black" cx="134.152" cy="-102.212" rx="3.2" ry="3.2"/>
</g>
<!-- methods_collections&#45;&gt;methods -->
<g id="edge2" class="edge"><title>methods_collections:method_title:w&#45;&gt;methods:title:e</title>
<path fill="none" stroke="black" d="M130.583,-89.1449C3.82901,-111.118 251.916,-442 98.5,-442"/>
<polygon fill="black" stroke="black" points="137.025,-88.6333 145.285,-91.5887 141.013,-88.3167 145,-88 145,-88 145,-88 141.013,-88.3167 144.715,-84.4113 137.025,-88.6333 137.025,-88.6333"/>
<ellipse fill="none" stroke="black" cx="133.835" cy="-88.8867" rx="3.2" ry="3.2"/>
</g>
<!-- performances -->
<g id="node5" class="node"><title>performances</title>
<g id="a_node5"><a xlink:href="tables/performances.html" xlink:title="performances">
<polygon fill="#ffffff" stroke="none" points="155.5,-459 155.5,-731 238.5,-731 238.5,-459 155.5,-459"/>
<polygon fill="#002856" stroke="none" points="156,-714 156,-731 239,-731 239,-714 156,-714"/>
<polygon fill="none" stroke="black" points="156,-714 156,-731 239,-731 239,-714 156,-714"/>
<text text-anchor="start" x="164" y="-721" font-family="Lucida Sans,sans-serif" font-weight="bold" font-size="10.00" fill="#e0ded9">performances</text>
<polygon fill="#f3f3f3" stroke="none" points="156,-697 156,-714 239,-714 239,-697 156,-697"/>
<polygon fill="none" stroke="black" points="156,-697 156,-714 239,-714 239,-697 156,-697"/>
<text text-anchor="start" x="159" y="-703" font-family="Lucida Sans,sans-serif" font-size="10.00">id</text>
<polygon fill="#f3f3f3" stroke="none" points="156,-680 156,-697 239,-697 239,-680 156,-680"/>
<polygon fill="none" stroke="black" points="156,-680 156,-697 239,-697 239,-680 156,-680"/>
<text text-anchor="start" x="159" y="-686" font-family="Lucida Sans,sans-serif" font-size="10.00">location_tower_id</text>
<polygon fill="#f3f3f3" stroke="none" points="156,-663 156,-680 239,-680 239,-663 156,-663"/>
<polygon fill="none" stroke="black" points="156,-663 156,-680 239,-680 239,-663 156,-663"/>
<text text-anchor="start" x="159" y="-669" font-family="Lucida Sans,sans-serif" font-size="10.00">method_title</text>
<polygon fill="none" stroke="black" points="156,-646 156,-663 239,-663 239,-646 156,-646"/>
<text text-anchor="start" x="159" y="-652" font-family="Lucida Sans,sans-serif" font-size="10.00">type</text>
<polygon fill="none" stroke="black" points="156,-629 156,-646 239,-646 239,-629 156,-629"/>
<text text-anchor="start" x="159" y="-635" font-family="Lucida Sans,sans-serif" font-size="10.00">date</text>
<polygon fill="none" stroke="black" points="156,-612 156,-629 239,-629 239,-612 156,-612"/>
<text text-anchor="start" x="159" y="-618" font-family="Lucida Sans,sans-serif" font-size="10.00">society</text>
<polygon fill="none" stroke="black" points="156,-595 156,-612 239,-612 239,-595 156,-595"/>
<text text-anchor="start" x="159" y="-601" font-family="Lucida Sans,sans-serif" font-size="10.00">rung_title</text>
<polygon fill="none" stroke="black" points="156,-578 156,-595 239,-595 239,-578 156,-578"/>
<text text-anchor="start" x="159" y="-584" font-family="Lucida Sans,sans-serif" font-size="10.00">reference</text>
<polygon fill="none" stroke="black" points="156,-561 156,-578 239,-578 239,-561 156,-561"/>
<text text-anchor="start" x="159" y="-567" font-family="Lucida Sans,sans-serif" font-size="10.00">location_room</text>
<polygon fill="none" stroke="black" points="156,-544 156,-561 239,-561 239,-544 156,-544"/>
<text text-anchor="start" x="159" y="-550" font-family="Lucida Sans,sans-serif" font-size="10.00">location_building</text>
<polygon fill="none" stroke="black" points="156,-527 156,-544 239,-544 239,-527 156,-527"/>
<text text-anchor="start" x="159" y="-533" font-family="Lucida Sans,sans-serif" font-size="10.00">location_address</text>
<polygon fill="none" stroke="black" points="156,-510 156,-527 239,-527 239,-510 156,-510"/>
<text text-anchor="start" x="159" y="-516" font-family="Lucida Sans,sans-serif" font-size="10.00">location_town</text>
<polygon fill="none" stroke="black" points="156,-493 156,-510 239,-510 239,-493 156,-493"/>
<text text-anchor="start" x="159" y="-499" font-family="Lucida Sans,sans-serif" font-size="10.00">location_county</text>
<polygon fill="none" stroke="black" points="156,-476 156,-493 239,-493 239,-476 156,-476"/>
<text text-anchor="start" x="159" y="-482" font-family="Lucida Sans,sans-serif" font-size="10.00">location_region</text>
<polygon fill="none" stroke="black" points="156,-459 156,-476 239,-476 239,-459 156,-459"/>
<text text-anchor="start" x="159" y="-465" font-family="Lucida Sans,sans-serif" font-size="10.00">location_country</text>
</a>
</g>
</g>
<!-- performances&#45;&gt;methods -->
<g id="edge4" class="edge"><title>performances:method_title:w&#45;&gt;methods:title:e</title>
<path fill="none" stroke="black" d="M140.434,-670.149C65.2622,-648.382 198.21,-442 98.5,-442"/>
<polygon fill="black" stroke="black" points="147.064,-670.991 154.546,-675.571 151.032,-671.496 155,-672 155,-672 155,-672 151.032,-671.496 155.454,-668.429 147.064,-670.991 147.064,-670.991"/>
<ellipse fill="none" stroke="black" cx="143.889" cy="-670.588" rx="3.2" ry="3.2"/>
</g>
<!-- towers -->
<g id="node6" class="node"><title>towers</title>
<g id="a_node6"><a xlink:href="tables/towers.html" xlink:title="towers">
<polygon fill="#ffffff" stroke="none" points="14,-488.5 14,-1015.5 91,-1015.5 91,-488.5 14,-488.5"/>
<polygon fill="#002856" stroke="none" points="14.5,-998 14.5,-1015 91.5,-1015 91.5,-998 14.5,-998"/>
<polygon fill="none" stroke="black" points="14.5,-998 14.5,-1015 91.5,-1015 91.5,-998 14.5,-998"/>
<text text-anchor="start" x="36.5" y="-1005" font-family="Lucida Sans,sans-serif" font-weight="bold" font-size="10.00" fill="#e0ded9">towers</text>
<polygon fill="#f3f3f3" stroke="none" points="14.5,-981 14.5,-998 91.5,-998 91.5,-981 14.5,-981"/>
<polygon fill="none" stroke="black" points="14.5,-981 14.5,-998 91.5,-998 91.5,-981 14.5,-981"/>
<text text-anchor="start" x="17.5" y="-987" font-family="Lucida Sans,sans-serif" font-size="10.00">id</text>
<polygon fill="none" stroke="black" points="14.5,-964 14.5,-981 91.5,-981 91.5,-964 14.5,-964"/>
<text text-anchor="start" x="17.5" y="-970" font-family="Lucida Sans,sans-serif" font-size="10.00">gridreference</text>
<polygon fill="none" stroke="black" points="14.5,-947 14.5,-964 91.5,-964 91.5,-947 14.5,-947"/>
<text text-anchor="start" x="17.5" y="-953" font-family="Lucida Sans,sans-serif" font-size="10.00">latitude</text>
<polygon fill="none" stroke="black" points="14.5,-930 14.5,-947 91.5,-947 91.5,-930 14.5,-930"/>
<text text-anchor="start" x="17.5" y="-936" font-family="Lucida Sans,sans-serif" font-size="10.00">longitude</text>
<polygon fill="none" stroke="black" points="14.5,-913 14.5,-930 91.5,-930 91.5,-913 14.5,-913"/>
<text text-anchor="start" x="17.5" y="-919" font-family="Lucida Sans,sans-serif" font-size="10.00">latitudesatnav</text>
<polygon fill="none" stroke="black" points="14.5,-896 14.5,-913 91.5,-913 91.5,-896 14.5,-896"/>
<text text-anchor="start" x="17.5" y="-902" font-family="Lucida Sans,sans-serif" font-size="10.00">longitudesatnav</text>
<polygon fill="none" stroke="black" points="14.5,-879 14.5,-896 91.5,-896 91.5,-879 14.5,-879"/>
<text text-anchor="start" x="17.5" y="-885" font-family="Lucida Sans,sans-serif" font-size="10.00">postcode</text>
<polygon fill="none" stroke="black" points="14.5,-862 14.5,-879 91.5,-879 91.5,-862 14.5,-862"/>
<text text-anchor="start" x="17.5" y="-868" font-family="Lucida Sans,sans-serif" font-size="10.00">country</text>
<polygon fill="none" stroke="black" points="14.5,-845 14.5,-862 91.5,-862 91.5,-845 14.5,-845"/>
<text text-anchor="start" x="17.5" y="-851" font-family="Lucida Sans,sans-serif" font-size="10.00">county</text>
<polygon fill="none" stroke="black" points="14.5,-828 14.5,-845 91.5,-845 91.5,-828 14.5,-828"/>
<text text-anchor="start" x="17.5" y="-834" font-family="Lucida Sans,sans-serif" font-size="10.00">diocese</text>
<polygon fill="none" stroke="black" points="14.5,-811 14.5,-828 91.5,-828 91.5,-811 14.5,-811"/>
<text text-anchor="start" x="17.5" y="-817" font-family="Lucida Sans,sans-serif" font-size="10.00">place</text>
<polygon fill="none" stroke="black" points="14.5,-794 14.5,-811 91.5,-811 91.5,-794 14.5,-794"/>
<text text-anchor="start" x="17.5" y="-800" font-family="Lucida Sans,sans-serif" font-size="10.00">altname</text>
<polygon fill="none" stroke="black" points="14.5,-777 14.5,-794 91.5,-794 91.5,-777 14.5,-777"/>
<text text-anchor="start" x="17.5" y="-783" font-family="Lucida Sans,sans-serif" font-size="10.00">dedication</text>
<polygon fill="none" stroke="black" points="14.5,-760 14.5,-777 91.5,-777 91.5,-760 14.5,-760"/>
<text text-anchor="start" x="17.5" y="-766" font-family="Lucida Sans,sans-serif" font-size="10.00">bells</text>
<polygon fill="none" stroke="black" points="14.5,-743 14.5,-760 91.5,-760 91.5,-743 14.5,-743"/>
<text text-anchor="start" x="17.5" y="-749" font-family="Lucida Sans,sans-serif" font-size="10.00">weight</text>
<polygon fill="none" stroke="black" points="14.5,-726 14.5,-743 91.5,-743 91.5,-726 14.5,-726"/>
<text text-anchor="start" x="17.5" y="-732" font-family="Lucida Sans,sans-serif" font-size="10.00">weightapprox</text>
<polygon fill="none" stroke="black" points="14.5,-709 14.5,-726 91.5,-726 91.5,-709 14.5,-709"/>
<text text-anchor="start" x="17.5" y="-715" font-family="Lucida Sans,sans-serif" font-size="10.00">note</text>
<polygon fill="none" stroke="black" points="14.5,-692 14.5,-709 91.5,-709 91.5,-692 14.5,-692"/>
<text text-anchor="start" x="17.5" y="-698" font-family="Lucida Sans,sans-serif" font-size="10.00">hz</text>
<polygon fill="none" stroke="black" points="14.5,-675 14.5,-692 91.5,-692 91.5,-675 14.5,-675"/>
<text text-anchor="start" x="17.5" y="-681" font-family="Lucida Sans,sans-serif" font-size="10.00">practicenight</text>
<polygon fill="none" stroke="black" points="14.5,-658 14.5,-675 91.5,-675 91.5,-658 14.5,-658"/>
<text text-anchor="start" x="17.5" y="-664" font-family="Lucida Sans,sans-serif" font-size="10.00">practicestart</text>
<polygon fill="none" stroke="black" points="14.5,-641 14.5,-658 91.5,-658 91.5,-641 14.5,-641"/>
<text text-anchor="start" x="17.5" y="-647" font-family="Lucida Sans,sans-serif" font-size="10.00">practicenotes</text>
<polygon fill="none" stroke="black" points="14.5,-624 14.5,-641 91.5,-641 91.5,-624 14.5,-624"/>
<text text-anchor="start" x="17.5" y="-630" font-family="Lucida Sans,sans-serif" font-size="10.00">groundfloor</text>
<polygon fill="none" stroke="black" points="14.5,-607 14.5,-624 91.5,-624 91.5,-607 14.5,-607"/>
<text text-anchor="start" x="17.5" y="-613" font-family="Lucida Sans,sans-serif" font-size="10.00">toilet</text>
<polygon fill="none" stroke="black" points="14.5,-590 14.5,-607 91.5,-607 91.5,-590 14.5,-590"/>
<text text-anchor="start" x="17.5" y="-596" font-family="Lucida Sans,sans-serif" font-size="10.00">unringable</text>
<polygon fill="none" stroke="black" points="14.5,-573 14.5,-590 91.5,-590 91.5,-573 14.5,-573"/>
<text text-anchor="start" x="17.5" y="-579" font-family="Lucida Sans,sans-serif" font-size="10.00">simulator</text>
<polygon fill="none" stroke="black" points="14.5,-556 14.5,-573 91.5,-573 91.5,-556 14.5,-556"/>
<text text-anchor="start" x="17.5" y="-562" font-family="Lucida Sans,sans-serif" font-size="10.00">overhaulyear</text>
<polygon fill="none" stroke="black" points="14.5,-539 14.5,-556 91.5,-556 91.5,-539 14.5,-539"/>
<text text-anchor="start" x="17.5" y="-545" font-family="Lucida Sans,sans-serif" font-size="10.00">contractor</text>
<polygon fill="none" stroke="black" points="14.5,-522 14.5,-539 91.5,-539 91.5,-522 14.5,-522"/>
<text text-anchor="start" x="17.5" y="-528" font-family="Lucida Sans,sans-serif" font-size="10.00">tunedyear</text>
<polygon fill="none" stroke="black" points="14.5,-505 14.5,-522 91.5,-522 91.5,-505 14.5,-505"/>
<text text-anchor="start" x="17.5" y="-511" font-family="Lucida Sans,sans-serif" font-size="10.00">extrainfo</text>
<polygon fill="none" stroke="black" points="14.5,-488 14.5,-505 91.5,-505 91.5,-488 14.5,-488"/>
<text text-anchor="start" x="17.5" y="-494" font-family="Lucida Sans,sans-serif" font-size="10.00">webpage</text>
</a>
</g>
</g>
<!-- performances&#45;&gt;towers -->
<g id="edge3" class="edge"><title>performances:location_tower_id:w&#45;&gt;towers:id:e</title>
<path fill="none" stroke="black" d="M140.537,-690.342C34.3045,-712.056 223.794,-990 92.5,-990"/>
<polygon fill="black" stroke="black" points="147.034,-689.739 155.333,-692.585 151.017,-689.37 155,-689 155,-689 155,-689 151.017,-689.37 154.667,-685.415 147.034,-689.739 147.034,-689.739"/>
<ellipse fill="none" stroke="black" cx="143.848" cy="-690.035" rx="3.2" ry="3.2"/>
</g>
<!-- towers_associations -->
<g id="node7" class="node"><title>towers_associations</title>
<g id="a_node7"><a xlink:href="tables/towers_associations.html" xlink:title="towers_associations">
<polygon fill="#ffffff" stroke="none" points="147.5,-1063.5 147.5,-1114.5 246.5,-1114.5 246.5,-1063.5 147.5,-1063.5"/>
<polygon fill="#002856" stroke="none" points="148,-1097 148,-1114 247,-1114 247,-1097 148,-1097"/>
<polygon fill="none" stroke="black" points="148,-1097 148,-1114 247,-1114 247,-1097 148,-1097"/>
<text text-anchor="start" x="151" y="-1104" font-family="Lucida Sans,sans-serif" font-weight="bold" font-size="10.00" fill="#e0ded9">towers_associations</text>
<polygon fill="#f3f3f3" stroke="none" points="148,-1080 148,-1097 247,-1097 247,-1080 148,-1080"/>
<polygon fill="none" stroke="black" points="148,-1080 148,-1097 247,-1097 247,-1080 148,-1080"/>
<text text-anchor="start" x="151" y="-1086" font-family="Lucida Sans,sans-serif" font-size="10.00">tower_id</text>
<polygon fill="#f3f3f3" stroke="none" points="148,-1063 148,-1080 247,-1080 247,-1063 148,-1063"/>
<polygon fill="none" stroke="black" points="148,-1063 148,-1080 247,-1080 247,-1063 148,-1063"/>
<text text-anchor="start" x="151" y="-1069" font-family="Lucida Sans,sans-serif" font-size="10.00">association_id</text>
</a>
</g>
</g>
<!-- towers_associations&#45;&gt;associations -->
<g id="edge5" class="edge"><title>towers_associations:association_id:w&#45;&gt;associations:id:e</title>
<path fill="none" stroke="black" d="M132.454,-1071.96C115.954,-1074.28 107.513,-1080 85.5,-1080"/>
<polygon fill="black" stroke="black" points="139.017,-1071.53 147.238,-1074.59 143.009,-1071.26 147,-1071 147,-1071 147,-1071 143.009,-1071.26 146.762,-1067.41 139.017,-1071.53 139.017,-1071.53"/>
<ellipse fill="none" stroke="black" cx="135.824" cy="-1071.74" rx="3.2" ry="3.2"/>
</g>
<!-- towers_associations&#45;&gt;towers -->
<g id="edge6" class="edge"><title>towers_associations:tower_id:w&#45;&gt;towers:id:e</title>
<path fill="none" stroke="black" d="M133.088,-1084.28C106.445,-1066.38 136.497,-990 92.5,-990"/>
<polygon fill="black" stroke="black" points="139.272,-1085.93 146.07,-1091.48 143.136,-1086.97 147,-1088 147,-1088 147,-1088 143.136,-1086.97 147.93,-1084.52 139.272,-1085.93 139.272,-1085.93"/>
<ellipse fill="none" stroke="black" cx="136.181" cy="-1085.11" rx="3.2" ry="3.2"/>
</g>
<!-- towers_oldpks -->
<g id="node8" class="node"><title>towers_oldpks</title>
<g id="a_node8"><a xlink:href="tables/towers_oldpks.html" xlink:title="towers_oldpks">
<polygon fill="#ffffff" stroke="none" points="160,-982.5 160,-1033.5 234,-1033.5 234,-982.5 160,-982.5"/>
<polygon fill="#002856" stroke="none" points="160,-1016 160,-1033 234,-1033 234,-1016 160,-1016"/>
<polygon fill="none" stroke="black" points="160,-1016 160,-1033 234,-1033 234,-1016 160,-1016"/>
<text text-anchor="start" x="163" y="-1023" font-family="Lucida Sans,sans-serif" font-weight="bold" font-size="10.00" fill="#e0ded9">towers_oldpks</text>
<polygon fill="#f3f3f3" stroke="none" points="160,-999 160,-1016 234,-1016 234,-999 160,-999"/>
<polygon fill="none" stroke="black" points="160,-999 160,-1016 234,-1016 234,-999 160,-999"/>
<text text-anchor="start" x="163" y="-1005" font-family="Lucida Sans,sans-serif" font-size="10.00">oldpk</text>
<polygon fill="#f3f3f3" stroke="none" points="160,-982 160,-999 234,-999 234,-982 160,-982"/>
<polygon fill="none" stroke="black" points="160,-982 160,-999 234,-999 234,-982 160,-982"/>
<text text-anchor="start" x="163" y="-988" font-family="Lucida Sans,sans-serif" font-size="10.00">tower_id</text>
</a>
</g>
</g>
<!-- towers_oldpks&#45;&gt;towers -->
<g id="edge7" class="edge"><title>towers_oldpks:tower_id:w&#45;&gt;towers:id:e</title>
<path fill="none" stroke="black" d="M144.421,-990C125.894,-990 116.514,-990 92.5,-990"/>
<polygon fill="black" stroke="black" points="151,-990 159,-993.6 155,-990 159,-990 159,-990 159,-990 155,-990 159,-986.4 151,-990 151,-990"/>
<ellipse fill="none" stroke="black" cx="147.8" cy="-990" rx="3.2" ry="3.2"/>
</g>
</g>
</svg>
