<?xml version="1.0" encoding="UTF-8" standalone="no"?>
<!DOCTYPE svg PUBLIC "-//W3C//DTD SVG 1.1//EN" "http://www.w3.org/Graphics/SVG/1.1/DTD/svg11.dtd">
<svg xmlns="http://www.w3.org/2000/svg" version="1.1" x="0" y="0" width="30px" height="30px" viewBox="0 0 360 360">
  <g stroke="none" fill="#002856" transform="translate(-58.89,-56.002)">
    <path d="m 381.834,361.391c5.045,0 9.174,-4.125 9.174,-9.168v-14.657c0,-5.048 -3.158,-11.848 -6.986,-15.109 0,0 -59.893,-50.876 -64.393,-131.984 -5.389,-97.003 -54.984,-93.017 -80.742,-93.017 -25.758,0 -75.348,-3.986 -80.742,93.017 -4.508,81.108 -64.389,131.984 -64.389,131.984 -3.836,3.262 -6.986,10.062 -6.986,15.109v14.657c0,5.043 4.125,9.168 9.174,9.168h285.89 z"/>
    <path d="m 236.022,79.188h2.865 2.869l3.365,-0.013c7.93,0 16.131,0.53 24.188,2.235v-7.158c0,-10.031 -8.211,-18.25 -18.256,-18.25h-24.328c-10.049,0 -18.26,8.219 -18.26,18.25v7.158c8.055,-1.705 16.258,-2.235 24.188,-2.235l3.369,0.013z"/>
    <path d="m 202.381,379.641c0,16.736 13.686,36.363 30.422,36.363h12.172c16.736,0 30.422,-19.627 30.422,-36.363l0,0h-73.016l0,0z"/>
  </g>
</svg>
