<?xml version="1.0" encoding="UTF-8" standalone="no"?>
<!DOCTYPE svg PUBLIC "-//W3C//DTD SVG 1.1//EN"
 "http://www.w3.org/Graphics/SVG/1.1/DTD/svg11.dtd">
<!-- Generated by graphviz version 2.42.3 (0)
 -->
<!-- Title: largeRelationshipsDiagram Pages: 1 -->
<svg width="270pt" height="506pt"
 viewBox="0.00 0.00 270.00 505.50" xmlns="http://www.w3.org/2000/svg" xmlns:xlink="http://www.w3.org/1999/xlink">
<g id="graph0" class="graph" transform="scale(1 1) rotate(0) translate(4 501.5)">
<title>largeRelationshipsDiagram</title>
<polygon fill="#ffffff" stroke="transparent" points="-4,4 -4,-501.5 266,-501.5 266,4 -4,4"/>
<!-- collections -->
<g id="node1" class="node">
<title>collections</title>
<g id="a_node1"><a xlink:href="tables/collections.html" xlink:title="collections">
<polygon fill="#ffffff" stroke="transparent" points="24,-407 24,-475 83,-475 83,-407 24,-407"/>
<polygon fill="#002856" stroke="transparent" points="24.5,-458 24.5,-475 83.5,-475 83.5,-458 24.5,-458"/>
<polygon fill="none" stroke="black" points="24.5,-458 24.5,-475 83.5,-475 83.5,-458 24.5,-458"/>
<text text-anchor="start" x="27.5" y="-465" font-family="Lucida Sans,sans-serif" font-weight="bold" font-size="10.00" fill="#e0ded9">collections</text>
<polygon fill="#f3f3f3" stroke="transparent" points="24.5,-441 24.5,-458 83.5,-458 83.5,-441 24.5,-441"/>
<polygon fill="none" stroke="black" points="24.5,-441 24.5,-458 83.5,-458 83.5,-441 24.5,-441"/>
<text text-anchor="start" x="27.5" y="-447" font-family="Lucida Sans,sans-serif" font-size="10.00">id</text>
<polygon fill="none" stroke="black" points="24.5,-424 24.5,-441 83.5,-441 83.5,-424 24.5,-424"/>
<text text-anchor="start" x="27.5" y="-430" font-family="Lucida Sans,sans-serif" font-size="10.00">name</text>
<polygon fill="none" stroke="black" points="24.5,-407 24.5,-424 83.5,-424 83.5,-407 24.5,-407"/>
<text text-anchor="start" x="27.5" y="-413" font-family="Lucida Sans,sans-serif" font-size="10.00">description</text>
</a>
</g>
</g>
<!-- methods -->
<g id="node2" class="node">
<title>methods</title>
<g id="a_node2"><a xlink:href="tables/methods.html" xlink:title="methods">
<polygon fill="#ffffff" stroke="transparent" points="8,-4 8,-378 99,-378 99,-4 8,-4"/>
<polygon fill="#002856" stroke="transparent" points="8.5,-361 8.5,-378 99.5,-378 99.5,-361 8.5,-361"/>
<polygon fill="none" stroke="black" points="8.5,-361 8.5,-378 99.5,-378 99.5,-361 8.5,-361"/>
<text text-anchor="start" x="32.5" y="-368" font-family="Lucida Sans,sans-serif" font-weight="bold" font-size="10.00" fill="#e0ded9">methods</text>
<polygon fill="#f3f3f3" stroke="transparent" points="8.5,-344 8.5,-361 99.5,-361 99.5,-344 8.5,-344"/>
<polygon fill="none" stroke="black" points="8.5,-344 8.5,-361 99.5,-361 99.5,-344 8.5,-344"/>
<text text-anchor="start" x="11.5" y="-350" font-family="Lucida Sans,sans-serif" font-size="10.00">title</text>
<polygon fill="none" stroke="black" points="8.5,-327 8.5,-344 99.5,-344 99.5,-327 8.5,-327"/>
<text text-anchor="start" x="11.5" y="-333" font-family="Lucida Sans,sans-serif" font-size="10.00">url</text>
<polygon fill="none" stroke="black" points="8.5,-310 8.5,-327 99.5,-327 99.5,-310 8.5,-310"/>
<text text-anchor="start" x="11.5" y="-316" font-family="Lucida Sans,sans-serif" font-size="10.00">stage</text>
<polygon fill="none" stroke="black" points="8.5,-293 8.5,-310 99.5,-310 99.5,-293 8.5,-293"/>
<text text-anchor="start" x="11.5" y="-299" font-family="Lucida Sans,sans-serif" font-size="10.00">classification</text>
<polygon fill="none" stroke="black" points="8.5,-276 8.5,-293 99.5,-293 99.5,-276 8.5,-276"/>
<text text-anchor="start" x="11.5" y="-282" font-family="Lucida Sans,sans-serif" font-size="10.00">namemetaphone</text>
<polygon fill="none" stroke="black" points="8.5,-259 8.5,-276 99.5,-276 99.5,-259 8.5,-259"/>
<text text-anchor="start" x="11.5" y="-265" font-family="Lucida Sans,sans-serif" font-size="10.00">notation</text>
<polygon fill="none" stroke="black" points="8.5,-242 8.5,-259 99.5,-259 99.5,-242 8.5,-242"/>
<text text-anchor="start" x="11.5" y="-248" font-family="Lucida Sans,sans-serif" font-size="10.00">notationexpanded</text>
<polygon fill="none" stroke="black" points="8.5,-225 8.5,-242 99.5,-242 99.5,-225 8.5,-225"/>
<text text-anchor="start" x="11.5" y="-231" font-family="Lucida Sans,sans-serif" font-size="10.00">leadheadcode</text>
<polygon fill="none" stroke="black" points="8.5,-208 8.5,-225 99.5,-225 99.5,-208 8.5,-208"/>
<text text-anchor="start" x="11.5" y="-214" font-family="Lucida Sans,sans-serif" font-size="10.00">leadhead</text>
<polygon fill="none" stroke="black" points="8.5,-191 8.5,-208 99.5,-208 99.5,-191 8.5,-191"/>
<text text-anchor="start" x="11.5" y="-197" font-family="Lucida Sans,sans-serif" font-size="10.00">fchgroups</text>
<polygon fill="none" stroke="black" points="8.5,-174 8.5,-191 99.5,-191 99.5,-174 8.5,-174"/>
<text text-anchor="start" x="11.5" y="-180" font-family="Lucida Sans,sans-serif" font-size="10.00">lengthoflead</text>
<polygon fill="none" stroke="black" points="8.5,-157 8.5,-174 99.5,-174 99.5,-157 8.5,-157"/>
<text text-anchor="start" x="11.5" y="-163" font-family="Lucida Sans,sans-serif" font-size="10.00">numberofhunts</text>
<polygon fill="none" stroke="black" points="8.5,-140 8.5,-157 99.5,-157 99.5,-140 8.5,-140"/>
<text text-anchor="start" x="11.5" y="-146" font-family="Lucida Sans,sans-serif" font-size="10.00">little</text>
<polygon fill="none" stroke="black" points="8.5,-123 8.5,-140 99.5,-140 99.5,-123 8.5,-123"/>
<text text-anchor="start" x="11.5" y="-129" font-family="Lucida Sans,sans-serif" font-size="10.00">differential</text>
<polygon fill="none" stroke="black" points="8.5,-106 8.5,-123 99.5,-123 99.5,-106 8.5,-106"/>
<text text-anchor="start" x="11.5" y="-112" font-family="Lucida Sans,sans-serif" font-size="10.00">plain</text>
<polygon fill="none" stroke="black" points="8.5,-89 8.5,-106 99.5,-106 99.5,-89 8.5,-89"/>
<text text-anchor="start" x="11.5" y="-95" font-family="Lucida Sans,sans-serif" font-size="10.00">trebledodging</text>
<polygon fill="none" stroke="black" points="8.5,-72 8.5,-89 99.5,-89 99.5,-72 8.5,-72"/>
<text text-anchor="start" x="11.5" y="-78" font-family="Lucida Sans,sans-serif" font-size="10.00">palindromic</text>
<polygon fill="none" stroke="black" points="8.5,-55 8.5,-72 99.5,-72 99.5,-55 8.5,-55"/>
<text text-anchor="start" x="11.5" y="-61" font-family="Lucida Sans,sans-serif" font-size="10.00">doublesym</text>
<polygon fill="none" stroke="black" points="8.5,-38 8.5,-55 99.5,-55 99.5,-38 8.5,-38"/>
<text text-anchor="start" x="11.5" y="-44" font-family="Lucida Sans,sans-serif" font-size="10.00">rotational</text>
<polygon fill="none" stroke="black" points="8.5,-21 8.5,-38 99.5,-38 99.5,-21 8.5,-21"/>
<text text-anchor="start" x="11.5" y="-27" font-family="Lucida Sans,sans-serif" font-size="10.00">calls</text>
<polygon fill="none" stroke="black" points="8.5,-4 8.5,-21 99.5,-21 99.5,-4 8.5,-4"/>
<text text-anchor="start" x="11.5" y="-10" font-family="Lucida Sans,sans-serif" font-size="10.00">ruleoffs</text>
</a>
</g>
</g>
<!-- methods_collections -->
<g id="node3" class="node">
<title>methods_collections</title>
<g id="a_node3"><a xlink:href="tables/methods_collections.html" xlink:title="methods_collections">
<polygon fill="#ffffff" stroke="transparent" points="148,-408.5 148,-493.5 254,-493.5 254,-408.5 148,-408.5"/>
<polygon fill="#002856" stroke="transparent" points="148,-476 148,-493 254,-493 254,-476 148,-476"/>
<polygon fill="none" stroke="black" points="148,-476 148,-493 254,-493 254,-476 148,-476"/>
<text text-anchor="start" x="151" y="-483" font-family="Lucida Sans,sans-serif" font-weight="bold" font-size="10.00" fill="#e0ded9">methods_collections</text>
<polygon fill="#f3f3f3" stroke="transparent" points="148,-459 148,-476 254,-476 254,-459 148,-459"/>
<polygon fill="none" stroke="black" points="148,-459 148,-476 254,-476 254,-459 148,-459"/>
<text text-anchor="start" x="151" y="-465" font-family="Lucida Sans,sans-serif" font-size="10.00">id</text>
<polygon fill="#f3f3f3" stroke="transparent" points="148,-442 148,-459 254,-459 254,-442 148,-442"/>
<polygon fill="none" stroke="black" points="148,-442 148,-459 254,-459 254,-442 148,-442"/>
<text text-anchor="start" x="151" y="-448" font-family="Lucida Sans,sans-serif" font-size="10.00">collection_id</text>
<polygon fill="#f3f3f3" stroke="transparent" points="148,-425 148,-442 254,-442 254,-425 148,-425"/>
<polygon fill="none" stroke="black" points="148,-425 148,-442 254,-442 254,-425 148,-425"/>
<text text-anchor="start" x="151" y="-431" font-family="Lucida Sans,sans-serif" font-size="10.00">method_title</text>
<polygon fill="none" stroke="black" points="148,-408 148,-425 254,-425 254,-408 148,-408"/>
<text text-anchor="start" x="151" y="-414" font-family="Lucida Sans,sans-serif" font-size="10.00">position</text>
</a>
</g>
</g>
<!-- methods_collections&#45;&gt;collections -->
<g id="edge1" class="edge">
<title>methods_collections:w&#45;&gt;collections:e</title>
<path fill="none" stroke="black" d="M132.3,-450C115.54,-450 106.64,-450 84.5,-450"/>
<polygon fill="black" stroke="black" points="139,-450 147,-453.6 143,-450 147,-450 147,-450 147,-450 143,-450 147,-446.4 139,-450 139,-450"/>
<ellipse fill="none" stroke="black" cx="135.8" cy="-450" rx="3.2" ry="3.2"/>
</g>
<!-- methods_collections&#45;&gt;methods -->
<g id="edge2" class="edge">
<title>methods_collections:w&#45;&gt;methods:e</title>
<path fill="none" stroke="black" d="M133.27,-428.24C114.79,-411.01 135.52,-353 100.5,-353"/>
<polygon fill="black" stroke="black" points="139.44,-430.38 145.82,-436.4 143.22,-431.69 147,-433 147,-433 147,-433 143.22,-431.69 148.18,-429.6 139.44,-430.38 139.44,-430.38"/>
<ellipse fill="none" stroke="black" cx="136.42" cy="-429.33" rx="3.2" ry="3.2"/>
</g>
<!-- performances -->
<g id="node4" class="node">
<title>performances</title>
<g id="a_node4"><a xlink:href="tables/performances.html" xlink:title="performances">
<polygon fill="#ffffff" stroke="transparent" points="160,-132.5 160,-387.5 242,-387.5 242,-132.5 160,-132.5"/>
<polygon fill="#002856" stroke="transparent" points="160,-370 160,-387 242,-387 242,-370 160,-370"/>
<polygon fill="none" stroke="black" points="160,-370 160,-387 242,-387 242,-370 160,-370"/>
<text text-anchor="start" x="166.5" y="-377" font-family="Lucida Sans,sans-serif" font-weight="bold" font-size="10.00" fill="#e0ded9">performances</text>
<polygon fill="#f3f3f3" stroke="transparent" points="160,-353 160,-370 242,-370 242,-353 160,-353"/>
<polygon fill="none" stroke="black" points="160,-353 160,-370 242,-370 242,-353 160,-353"/>
<text text-anchor="start" x="163" y="-359" font-family="Lucida Sans,sans-serif" font-size="10.00">id</text>
<polygon fill="#f3f3f3" stroke="transparent" points="160,-336 160,-353 242,-353 242,-336 160,-336"/>
<polygon fill="none" stroke="black" points="160,-336 160,-353 242,-353 242,-336 160,-336"/>
<text text-anchor="start" x="163" y="-342" font-family="Lucida Sans,sans-serif" font-size="10.00">method_title</text>
<polygon fill="none" stroke="black" points="160,-319 160,-336 242,-336 242,-319 160,-319"/>
<text text-anchor="start" x="163" y="-325" font-family="Lucida Sans,sans-serif" font-size="10.00">type</text>
<polygon fill="none" stroke="black" points="160,-302 160,-319 242,-319 242,-302 160,-302"/>
<text text-anchor="start" x="163" y="-308" font-family="Lucida Sans,sans-serif" font-size="10.00">date</text>
<polygon fill="none" stroke="black" points="160,-285 160,-302 242,-302 242,-285 160,-285"/>
<text text-anchor="start" x="163" y="-291" font-family="Lucida Sans,sans-serif" font-size="10.00">society</text>
<polygon fill="none" stroke="black" points="160,-268 160,-285 242,-285 242,-268 160,-268"/>
<text text-anchor="start" x="163" y="-274" font-family="Lucida Sans,sans-serif" font-size="10.00">rung_title</text>
<polygon fill="none" stroke="black" points="160,-251 160,-268 242,-268 242,-251 160,-251"/>
<text text-anchor="start" x="163" y="-257" font-family="Lucida Sans,sans-serif" font-size="10.00">reference</text>
<polygon fill="none" stroke="black" points="160,-234 160,-251 242,-251 242,-234 160,-234"/>
<text text-anchor="start" x="163" y="-240" font-family="Lucida Sans,sans-serif" font-size="10.00">location_room</text>
<polygon fill="none" stroke="black" points="160,-217 160,-234 242,-234 242,-217 160,-217"/>
<text text-anchor="start" x="163" y="-223" font-family="Lucida Sans,sans-serif" font-size="10.00">location_building</text>
<polygon fill="none" stroke="black" points="160,-200 160,-217 242,-217 242,-200 160,-200"/>
<text text-anchor="start" x="163" y="-206" font-family="Lucida Sans,sans-serif" font-size="10.00">location_address</text>
<polygon fill="none" stroke="black" points="160,-183 160,-200 242,-200 242,-183 160,-183"/>
<text text-anchor="start" x="163" y="-189" font-family="Lucida Sans,sans-serif" font-size="10.00">location_town</text>
<polygon fill="none" stroke="black" points="160,-166 160,-183 242,-183 242,-166 160,-166"/>
<text text-anchor="start" x="163" y="-172" font-family="Lucida Sans,sans-serif" font-size="10.00">location_county</text>
<polygon fill="none" stroke="black" points="160,-149 160,-166 242,-166 242,-149 160,-149"/>
<text text-anchor="start" x="163" y="-155" font-family="Lucida Sans,sans-serif" font-size="10.00">location_region</text>
<polygon fill="none" stroke="black" points="160,-132 160,-149 242,-149 242,-132 160,-132"/>
<text text-anchor="start" x="163" y="-138" font-family="Lucida Sans,sans-serif" font-size="10.00">location_country</text>
</a>
</g>
</g>
<!-- performances&#45;&gt;methods -->
<g id="edge3" class="edge">
<title>performances:w&#45;&gt;methods:e</title>
<path fill="none" stroke="black" d="M144.26,-345.98C129.16,-348.12 121,-353 100.5,-353"/>
<polygon fill="black" stroke="black" points="151.02,-345.53 159.24,-348.59 155.01,-345.27 159,-345 159,-345 159,-345 155.01,-345.27 158.76,-341.41 151.02,-345.53 151.02,-345.53"/>
<ellipse fill="none" stroke="black" cx="147.82" cy="-345.74" rx="3.2" ry="3.2"/>
</g>
</g>
</svg>
