<?xml version="1.0" encoding="UTF-8" standalone="no"?>
<!DOCTYPE svg PUBLIC "-//W3C//DTD SVG 1.1//EN"
 "http://www.w3.org/Graphics/SVG/1.1/DTD/svg11.dtd">
<!-- Generated by graphviz version 2.42.4 (0)
 -->
<!-- Title: largeRelationshipsDiagram Pages: 1 -->
<svg width="309pt" height="692pt"
 viewBox="0.00 0.00 309.00 692.00" xmlns="http://www.w3.org/2000/svg" xmlns:xlink="http://www.w3.org/1999/xlink">
<g id="graph0" class="graph" transform="scale(1 1) rotate(0) translate(4 688)">
<title>largeRelationshipsDiagram</title>
<polygon fill="#ffffff" stroke="transparent" points="-4,4 -4,-688 305,-688 305,4 -4,4"/>
<!-- collections -->
<g id="node1" class="node">
<title>collections</title>
<g id="a_node1"><a xlink:href="tables/collections.html" xlink:title="collections">
<polygon fill="#ffffff" stroke="transparent" points="32,-593.5 32,-661.5 99,-661.5 99,-593.5 32,-593.5"/>
<polygon fill="#002856" stroke="transparent" points="32.5,-644.5 32.5,-661.5 99.5,-661.5 99.5,-644.5 32.5,-644.5"/>
<polygon fill="none" stroke="black" points="32.5,-644.5 32.5,-661.5 99.5,-661.5 99.5,-644.5 32.5,-644.5"/>
<text text-anchor="start" x="35.5" y="-651.5" font-family="Lucida Sans,sans-serif" font-weight="bold" font-size="10.00" fill="#e0ded9">collections</text>
<polygon fill="#f3f3f3" stroke="transparent" points="32.5,-627.5 32.5,-644.5 99.5,-644.5 99.5,-627.5 32.5,-627.5"/>
<polygon fill="none" stroke="black" points="32.5,-627.5 32.5,-644.5 99.5,-644.5 99.5,-627.5 32.5,-627.5"/>
<text text-anchor="start" x="35.5" y="-633.5" font-family="Lucida Sans,sans-serif" font-size="10.00">id</text>
<polygon fill="none" stroke="black" points="32.5,-610.5 32.5,-627.5 99.5,-627.5 99.5,-610.5 32.5,-610.5"/>
<text text-anchor="start" x="35.5" y="-616.5" font-family="Lucida Sans,sans-serif" font-size="10.00">name</text>
<polygon fill="none" stroke="black" points="32.5,-593.5 32.5,-610.5 99.5,-610.5 99.5,-593.5 32.5,-593.5"/>
<text text-anchor="start" x="35.5" y="-599.5" font-family="Lucida Sans,sans-serif" font-size="10.00">description</text>
</a>
</g>
</g>
<!-- methods -->
<g id="node2" class="node">
<title>methods</title>
<g id="a_node2"><a xlink:href="tables/methods.html" xlink:title="methods">
<polygon fill="#ffffff" stroke="transparent" points="8,-4 8,-565 123,-565 123,-4 8,-4"/>
<polygon fill="#002856" stroke="transparent" points="8.5,-547.5 8.5,-564.5 123.5,-564.5 123.5,-547.5 8.5,-547.5"/>
<polygon fill="none" stroke="black" points="8.5,-547.5 8.5,-564.5 123.5,-564.5 123.5,-547.5 8.5,-547.5"/>
<text text-anchor="start" x="41.5" y="-554.5" font-family="Lucida Sans,sans-serif" font-weight="bold" font-size="10.00" fill="#e0ded9">methods</text>
<polygon fill="#f3f3f3" stroke="transparent" points="8.5,-530.5 8.5,-547.5 123.5,-547.5 123.5,-530.5 8.5,-530.5"/>
<polygon fill="none" stroke="black" points="8.5,-530.5 8.5,-547.5 123.5,-547.5 123.5,-530.5 8.5,-530.5"/>
<text text-anchor="start" x="11.5" y="-536.5" font-family="Lucida Sans,sans-serif" font-size="10.00">title</text>
<polygon fill="none" stroke="black" points="8.5,-513.5 8.5,-530.5 123.5,-530.5 123.5,-513.5 8.5,-513.5"/>
<text text-anchor="start" x="11.5" y="-519.5" font-family="Lucida Sans,sans-serif" font-size="10.00">url</text>
<polygon fill="none" stroke="black" points="8.5,-496.5 8.5,-513.5 123.5,-513.5 123.5,-496.5 8.5,-496.5"/>
<text text-anchor="start" x="11.5" y="-502.5" font-family="Lucida Sans,sans-serif" font-size="10.00">abbreviation</text>
<polygon fill="none" stroke="black" points="8.5,-479.5 8.5,-496.5 123.5,-496.5 123.5,-479.5 8.5,-479.5"/>
<text text-anchor="start" x="11.5" y="-485.5" font-family="Lucida Sans,sans-serif" font-size="10.00">provisional</text>
<polygon fill="none" stroke="black" points="8.5,-462.5 8.5,-479.5 123.5,-479.5 123.5,-462.5 8.5,-462.5"/>
<text text-anchor="start" x="11.5" y="-468.5" font-family="Lucida Sans,sans-serif" font-size="10.00">stage</text>
<polygon fill="none" stroke="black" points="8.5,-445.5 8.5,-462.5 123.5,-462.5 123.5,-445.5 8.5,-445.5"/>
<text text-anchor="start" x="11.5" y="-451.5" font-family="Lucida Sans,sans-serif" font-size="10.00">classification</text>
<polygon fill="none" stroke="black" points="8.5,-428.5 8.5,-445.5 123.5,-445.5 123.5,-428.5 8.5,-428.5"/>
<text text-anchor="start" x="11.5" y="-434.5" font-family="Lucida Sans,sans-serif" font-size="10.00">namemetaphone</text>
<polygon fill="none" stroke="black" points="8.5,-411.5 8.5,-428.5 123.5,-428.5 123.5,-411.5 8.5,-411.5"/>
<text text-anchor="start" x="11.5" y="-417.5" font-family="Lucida Sans,sans-serif" font-size="10.00">notation</text>
<polygon fill="none" stroke="black" points="8.5,-394.5 8.5,-411.5 123.5,-411.5 123.5,-394.5 8.5,-394.5"/>
<text text-anchor="start" x="11.5" y="-400.5" font-family="Lucida Sans,sans-serif" font-size="10.00">notationexpanded</text>
<polygon fill="none" stroke="black" points="8.5,-377.5 8.5,-394.5 123.5,-394.5 123.5,-377.5 8.5,-377.5"/>
<text text-anchor="start" x="11.5" y="-383.5" font-family="Lucida Sans,sans-serif" font-size="10.00">notationsiril</text>
<polygon fill="none" stroke="black" points="8.5,-360.5 8.5,-377.5 123.5,-377.5 123.5,-360.5 8.5,-360.5"/>
<text text-anchor="start" x="11.5" y="-366.5" font-family="Lucida Sans,sans-serif" font-size="10.00">leadheadcode</text>
<polygon fill="none" stroke="black" points="8.5,-343.5 8.5,-360.5 123.5,-360.5 123.5,-343.5 8.5,-343.5"/>
<text text-anchor="start" x="11.5" y="-349.5" font-family="Lucida Sans,sans-serif" font-size="10.00">leadhead</text>
<polygon fill="none" stroke="black" points="8.5,-326.5 8.5,-343.5 123.5,-343.5 123.5,-326.5 8.5,-326.5"/>
<text text-anchor="start" x="11.5" y="-332.5" font-family="Lucida Sans,sans-serif" font-size="10.00">fchgroups</text>
<polygon fill="none" stroke="black" points="8.5,-309.5 8.5,-326.5 123.5,-326.5 123.5,-309.5 8.5,-309.5"/>
<text text-anchor="start" x="11.5" y="-315.5" font-family="Lucida Sans,sans-serif" font-size="10.00">lengthoflead</text>
<polygon fill="none" stroke="black" points="8.5,-292.5 8.5,-309.5 123.5,-309.5 123.5,-292.5 8.5,-292.5"/>
<text text-anchor="start" x="11.5" y="-298.5" font-family="Lucida Sans,sans-serif" font-size="10.00">lengthofcourse</text>
<polygon fill="none" stroke="black" points="8.5,-275.5 8.5,-292.5 123.5,-292.5 123.5,-275.5 8.5,-275.5"/>
<text text-anchor="start" x="11.5" y="-281.5" font-family="Lucida Sans,sans-serif" font-size="10.00">numberofleads</text>
<polygon fill="none" stroke="black" points="8.5,-258.5 8.5,-275.5 123.5,-275.5 123.5,-258.5 8.5,-258.5"/>
<text text-anchor="start" x="11.5" y="-264.5" font-family="Lucida Sans,sans-serif" font-size="10.00">numberofhunts</text>
<polygon fill="none" stroke="black" points="8.5,-241.5 8.5,-258.5 123.5,-258.5 123.5,-241.5 8.5,-241.5"/>
<text text-anchor="start" x="11.5" y="-247.5" font-family="Lucida Sans,sans-serif" font-size="10.00">jump</text>
<polygon fill="none" stroke="black" points="8.5,-224.5 8.5,-241.5 123.5,-241.5 123.5,-224.5 8.5,-224.5"/>
<text text-anchor="start" x="11.5" y="-230.5" font-family="Lucida Sans,sans-serif" font-size="10.00">little</text>
<polygon fill="none" stroke="black" points="8.5,-207.5 8.5,-224.5 123.5,-224.5 123.5,-207.5 8.5,-207.5"/>
<text text-anchor="start" x="11.5" y="-213.5" font-family="Lucida Sans,sans-serif" font-size="10.00">differential</text>
<polygon fill="none" stroke="black" points="8.5,-190.5 8.5,-207.5 123.5,-207.5 123.5,-190.5 8.5,-190.5"/>
<text text-anchor="start" x="11.5" y="-196.5" font-family="Lucida Sans,sans-serif" font-size="10.00">plain</text>
<polygon fill="none" stroke="black" points="8.5,-173.5 8.5,-190.5 123.5,-190.5 123.5,-173.5 8.5,-173.5"/>
<text text-anchor="start" x="11.5" y="-179.5" font-family="Lucida Sans,sans-serif" font-size="10.00">trebledodging</text>
<polygon fill="none" stroke="black" points="8.5,-156.5 8.5,-173.5 123.5,-173.5 123.5,-156.5 8.5,-156.5"/>
<text text-anchor="start" x="11.5" y="-162.5" font-family="Lucida Sans,sans-serif" font-size="10.00">palindromic</text>
<polygon fill="none" stroke="black" points="8.5,-139.5 8.5,-156.5 123.5,-156.5 123.5,-139.5 8.5,-139.5"/>
<text text-anchor="start" x="11.5" y="-145.5" font-family="Lucida Sans,sans-serif" font-size="10.00">doublesym</text>
<polygon fill="none" stroke="black" points="8.5,-122.5 8.5,-139.5 123.5,-139.5 123.5,-122.5 8.5,-122.5"/>
<text text-anchor="start" x="11.5" y="-128.5" font-family="Lucida Sans,sans-serif" font-size="10.00">rotational</text>
<polygon fill="none" stroke="black" points="8.5,-105.5 8.5,-122.5 123.5,-122.5 123.5,-105.5 8.5,-105.5"/>
<text text-anchor="start" x="11.5" y="-111.5" font-family="Lucida Sans,sans-serif" font-size="10.00">calls</text>
<polygon fill="none" stroke="black" points="8.5,-88.5 8.5,-105.5 123.5,-105.5 123.5,-88.5 8.5,-88.5"/>
<text text-anchor="start" x="11.5" y="-94.5" font-family="Lucida Sans,sans-serif" font-size="10.00">ruleoffs</text>
<polygon fill="none" stroke="black" points="8.5,-71.5 8.5,-88.5 123.5,-88.5 123.5,-71.5 8.5,-71.5"/>
<text text-anchor="start" x="11.5" y="-77.5" font-family="Lucida Sans,sans-serif" font-size="10.00">callingpositions</text>
<polygon fill="none" stroke="black" points="8.5,-54.5 8.5,-71.5 123.5,-71.5 123.5,-54.5 8.5,-54.5"/>
<text text-anchor="start" x="11.5" y="-60.5" font-family="Lucida Sans,sans-serif" font-size="10.00">magic</text>
<polygon fill="none" stroke="black" points="8.5,-37.5 8.5,-54.5 123.5,-54.5 123.5,-37.5 8.5,-37.5"/>
<text text-anchor="start" x="11.5" y="-43.5" font-family="Lucida Sans,sans-serif" font-size="10.00">cccbrid</text>
<polygon fill="none" stroke="black" points="8.5,-20.5 8.5,-37.5 123.5,-37.5 123.5,-20.5 8.5,-20.5"/>
<text text-anchor="start" x="11.5" y="-26.5" font-family="Lucida Sans,sans-serif" font-size="10.00">methodreferences</text>
<polygon fill="none" stroke="black" points="8.5,-3.5 8.5,-20.5 123.5,-20.5 123.5,-3.5 8.5,-3.5"/>
<text text-anchor="start" x="11.5" y="-9.5" font-family="Lucida Sans,sans-serif" font-size="10.00">extensionconstruction</text>
</a>
</g>
</g>
<!-- methods_collections -->
<g id="node3" class="node">
<title>methods_collections</title>
<g id="a_node3"><a xlink:href="tables/methods_collections.html" xlink:title="methods_collections">
<polygon fill="#ffffff" stroke="transparent" points="172,-595 172,-680 293,-680 293,-595 172,-595"/>
<polygon fill="#002856" stroke="transparent" points="172.5,-662.5 172.5,-679.5 293.5,-679.5 293.5,-662.5 172.5,-662.5"/>
<polygon fill="none" stroke="black" points="172.5,-662.5 172.5,-679.5 293.5,-679.5 293.5,-662.5 172.5,-662.5"/>
<text text-anchor="start" x="175.5" y="-669.5" font-family="Lucida Sans,sans-serif" font-weight="bold" font-size="10.00" fill="#e0ded9">methods_collections</text>
<polygon fill="#f3f3f3" stroke="transparent" points="172.5,-645.5 172.5,-662.5 293.5,-662.5 293.5,-645.5 172.5,-645.5"/>
<polygon fill="none" stroke="black" points="172.5,-645.5 172.5,-662.5 293.5,-662.5 293.5,-645.5 172.5,-645.5"/>
<text text-anchor="start" x="175.5" y="-651.5" font-family="Lucida Sans,sans-serif" font-size="10.00">id</text>
<polygon fill="#f3f3f3" stroke="transparent" points="172.5,-628.5 172.5,-645.5 293.5,-645.5 293.5,-628.5 172.5,-628.5"/>
<polygon fill="none" stroke="black" points="172.5,-628.5 172.5,-645.5 293.5,-645.5 293.5,-628.5 172.5,-628.5"/>
<text text-anchor="start" x="175.5" y="-634.5" font-family="Lucida Sans,sans-serif" font-size="10.00">collection_id</text>
<polygon fill="#f3f3f3" stroke="transparent" points="172.5,-611.5 172.5,-628.5 293.5,-628.5 293.5,-611.5 172.5,-611.5"/>
<polygon fill="none" stroke="black" points="172.5,-611.5 172.5,-628.5 293.5,-628.5 293.5,-611.5 172.5,-611.5"/>
<text text-anchor="start" x="175.5" y="-617.5" font-family="Lucida Sans,sans-serif" font-size="10.00">method_title</text>
<polygon fill="none" stroke="black" points="172.5,-594.5 172.5,-611.5 293.5,-611.5 293.5,-594.5 172.5,-594.5"/>
<text text-anchor="start" x="175.5" y="-600.5" font-family="Lucida Sans,sans-serif" font-size="10.00">position</text>
</a>
</g>
</g>
<!-- methods_collections&#45;&gt;collections -->
<g id="edge1" class="edge">
<title>methods_collections:w&#45;&gt;collections:e</title>
<path fill="none" stroke="black" d="M157.09,-636.5C136.53,-636.5 126.63,-636.5 100.5,-636.5"/>
<polygon fill="black" stroke="black" points="163.5,-636.5 171.5,-640.1 167.5,-636.5 171.5,-636.5 171.5,-636.5 171.5,-636.5 167.5,-636.5 171.5,-632.9 163.5,-636.5 163.5,-636.5"/>
<ellipse fill="none" stroke="black" cx="160.3" cy="-636.5" rx="3.2" ry="3.2"/>
</g>
<!-- methods_collections&#45;&gt;methods -->
<g id="edge2" class="edge">
<title>methods_collections:w&#45;&gt;methods:e</title>
<path fill="none" stroke="black" d="M157.71,-614.74C139.1,-597.51 159.62,-539.5 124.5,-539.5"/>
<polygon fill="black" stroke="black" points="163.94,-616.89 170.32,-622.9 167.72,-618.19 171.5,-619.5 171.5,-619.5 171.5,-619.5 167.72,-618.19 172.68,-616.1 163.94,-616.89 163.94,-616.89"/>
<ellipse fill="none" stroke="black" cx="160.91" cy="-615.84" rx="3.2" ry="3.2"/>
</g>
<!-- performances -->
<g id="node4" class="node">
<title>performances</title>
<g id="a_node4"><a xlink:href="tables/performances.html" xlink:title="performances">
<polygon fill="#ffffff" stroke="transparent" points="187.5,-301.5 187.5,-573.5 277.5,-573.5 277.5,-301.5 187.5,-301.5"/>
<polygon fill="#002856" stroke="transparent" points="187.5,-556.5 187.5,-573.5 277.5,-573.5 277.5,-556.5 187.5,-556.5"/>
<polygon fill="none" stroke="black" points="187.5,-556.5 187.5,-573.5 277.5,-573.5 277.5,-556.5 187.5,-556.5"/>
<text text-anchor="start" x="193" y="-563.5" font-family="Lucida Sans,sans-serif" font-weight="bold" font-size="10.00" fill="#e0ded9">performances</text>
<polygon fill="#f3f3f3" stroke="transparent" points="187.5,-539.5 187.5,-556.5 277.5,-556.5 277.5,-539.5 187.5,-539.5"/>
<polygon fill="none" stroke="black" points="187.5,-539.5 187.5,-556.5 277.5,-556.5 277.5,-539.5 187.5,-539.5"/>
<text text-anchor="start" x="190.5" y="-545.5" font-family="Lucida Sans,sans-serif" font-size="10.00">id</text>
<polygon fill="#f3f3f3" stroke="transparent" points="187.5,-522.5 187.5,-539.5 277.5,-539.5 277.5,-522.5 187.5,-522.5"/>
<polygon fill="none" stroke="black" points="187.5,-522.5 187.5,-539.5 277.5,-539.5 277.5,-522.5 187.5,-522.5"/>
<text text-anchor="start" x="190.5" y="-528.5" font-family="Lucida Sans,sans-serif" font-size="10.00">method_title</text>
<polygon fill="none" stroke="black" points="187.5,-505.5 187.5,-522.5 277.5,-522.5 277.5,-505.5 187.5,-505.5"/>
<text text-anchor="start" x="190.5" y="-511.5" font-family="Lucida Sans,sans-serif" font-size="10.00">type</text>
<polygon fill="none" stroke="black" points="187.5,-488.5 187.5,-505.5 277.5,-505.5 277.5,-488.5 187.5,-488.5"/>
<text text-anchor="start" x="190.5" y="-494.5" font-family="Lucida Sans,sans-serif" font-size="10.00">date</text>
<polygon fill="none" stroke="black" points="187.5,-471.5 187.5,-488.5 277.5,-488.5 277.5,-471.5 187.5,-471.5"/>
<text text-anchor="start" x="190.5" y="-477.5" font-family="Lucida Sans,sans-serif" font-size="10.00">society</text>
<polygon fill="none" stroke="black" points="187.5,-454.5 187.5,-471.5 277.5,-471.5 277.5,-454.5 187.5,-454.5"/>
<text text-anchor="start" x="190.5" y="-460.5" font-family="Lucida Sans,sans-serif" font-size="10.00">rung_title</text>
<polygon fill="none" stroke="black" points="187.5,-437.5 187.5,-454.5 277.5,-454.5 277.5,-437.5 187.5,-437.5"/>
<text text-anchor="start" x="190.5" y="-443.5" font-family="Lucida Sans,sans-serif" font-size="10.00">rung_url</text>
<polygon fill="none" stroke="black" points="187.5,-420.5 187.5,-437.5 277.5,-437.5 277.5,-420.5 187.5,-420.5"/>
<text text-anchor="start" x="190.5" y="-426.5" font-family="Lucida Sans,sans-serif" font-size="10.00">reference</text>
<polygon fill="none" stroke="black" points="187.5,-403.5 187.5,-420.5 277.5,-420.5 277.5,-403.5 187.5,-403.5"/>
<text text-anchor="start" x="190.5" y="-409.5" font-family="Lucida Sans,sans-serif" font-size="10.00">location_room</text>
<polygon fill="none" stroke="black" points="187.5,-386.5 187.5,-403.5 277.5,-403.5 277.5,-386.5 187.5,-386.5"/>
<text text-anchor="start" x="190.5" y="-392.5" font-family="Lucida Sans,sans-serif" font-size="10.00">location_building</text>
<polygon fill="none" stroke="black" points="187.5,-369.5 187.5,-386.5 277.5,-386.5 277.5,-369.5 187.5,-369.5"/>
<text text-anchor="start" x="190.5" y="-375.5" font-family="Lucida Sans,sans-serif" font-size="10.00">location_address</text>
<polygon fill="none" stroke="black" points="187.5,-352.5 187.5,-369.5 277.5,-369.5 277.5,-352.5 187.5,-352.5"/>
<text text-anchor="start" x="190.5" y="-358.5" font-family="Lucida Sans,sans-serif" font-size="10.00">location_town</text>
<polygon fill="none" stroke="black" points="187.5,-335.5 187.5,-352.5 277.5,-352.5 277.5,-335.5 187.5,-335.5"/>
<text text-anchor="start" x="190.5" y="-341.5" font-family="Lucida Sans,sans-serif" font-size="10.00">location_county</text>
<polygon fill="none" stroke="black" points="187.5,-318.5 187.5,-335.5 277.5,-335.5 277.5,-318.5 187.5,-318.5"/>
<text text-anchor="start" x="190.5" y="-324.5" font-family="Lucida Sans,sans-serif" font-size="10.00">location_region</text>
<polygon fill="none" stroke="black" points="187.5,-301.5 187.5,-318.5 277.5,-318.5 277.5,-301.5 187.5,-301.5"/>
<text text-anchor="start" x="190.5" y="-307.5" font-family="Lucida Sans,sans-serif" font-size="10.00">location_country</text>
</a>
</g>
</g>
<!-- performances&#45;&gt;methods -->
<g id="edge3" class="edge">
<title>performances:w&#45;&gt;methods:e</title>
<path fill="none" stroke="black" d="M171.85,-532.36C155.22,-534.42 146.64,-539.5 124.5,-539.5"/>
<polygon fill="black" stroke="black" points="178.51,-531.97 186.71,-535.09 182.51,-531.73 186.5,-531.5 186.5,-531.5 186.5,-531.5 182.51,-531.73 186.29,-527.91 178.51,-531.97 178.51,-531.97"/>
<ellipse fill="none" stroke="black" cx="175.32" cy="-532.15" rx="3.2" ry="3.2"/>
</g>
</g>
</svg>
