<?xml version="1.0" encoding="UTF-8" standalone="no"?>
<!DOCTYPE svg PUBLIC "-//W3C//DTD SVG 1.1//EN"
 "http://www.w3.org/Graphics/SVG/1.1/DTD/svg11.dtd">
<!-- Generated by graphviz version 2.42.4 (0)
 -->
<!-- Title: largeRelationshipsDiagram Pages: 1 -->
<svg width="309pt" height="676pt"
 viewBox="0.00 0.00 309.00 675.50" xmlns="http://www.w3.org/2000/svg" xmlns:xlink="http://www.w3.org/1999/xlink">
<g id="graph0" class="graph" transform="scale(1 1) rotate(0) translate(4 671.5)">
<title>largeRelationshipsDiagram</title>
<polygon fill="#ffffff" stroke="transparent" points="-4,4 -4,-671.5 305,-671.5 305,4 -4,4"/>
<!-- collections -->
<g id="node1" class="node">
<title>collections</title>
<g id="a_node1"><a xlink:href="tables/collections.html" xlink:title="collections">
<polygon fill="#ffffff" stroke="transparent" points="32,-577 32,-645 99,-645 99,-577 32,-577"/>
<polygon fill="#002856" stroke="transparent" points="32.5,-628 32.5,-645 99.5,-645 99.5,-628 32.5,-628"/>
<polygon fill="none" stroke="black" points="32.5,-628 32.5,-645 99.5,-645 99.5,-628 32.5,-628"/>
<text text-anchor="start" x="35.5" y="-635" font-family="Lucida Sans,sans-serif" font-weight="bold" font-size="10.00" fill="#e0ded9">collections</text>
<polygon fill="#f3f3f3" stroke="transparent" points="32.5,-611 32.5,-628 99.5,-628 99.5,-611 32.5,-611"/>
<polygon fill="none" stroke="black" points="32.5,-611 32.5,-628 99.5,-628 99.5,-611 32.5,-611"/>
<text text-anchor="start" x="35.5" y="-617" font-family="Lucida Sans,sans-serif" font-size="10.00">id</text>
<polygon fill="none" stroke="black" points="32.5,-594 32.5,-611 99.5,-611 99.5,-594 32.5,-594"/>
<text text-anchor="start" x="35.5" y="-600" font-family="Lucida Sans,sans-serif" font-size="10.00">name</text>
<polygon fill="none" stroke="black" points="32.5,-577 32.5,-594 99.5,-594 99.5,-577 32.5,-577"/>
<text text-anchor="start" x="35.5" y="-583" font-family="Lucida Sans,sans-serif" font-size="10.00">description</text>
</a>
</g>
</g>
<!-- methods -->
<g id="node2" class="node">
<title>methods</title>
<g id="a_node2"><a xlink:href="tables/methods.html" xlink:title="methods">
<polygon fill="#ffffff" stroke="transparent" points="8,-4 8,-548 123,-548 123,-4 8,-4"/>
<polygon fill="#002856" stroke="transparent" points="8.5,-531 8.5,-548 123.5,-548 123.5,-531 8.5,-531"/>
<polygon fill="none" stroke="black" points="8.5,-531 8.5,-548 123.5,-548 123.5,-531 8.5,-531"/>
<text text-anchor="start" x="41.5" y="-538" font-family="Lucida Sans,sans-serif" font-weight="bold" font-size="10.00" fill="#e0ded9">methods</text>
<polygon fill="#f3f3f3" stroke="transparent" points="8.5,-514 8.5,-531 123.5,-531 123.5,-514 8.5,-514"/>
<polygon fill="none" stroke="black" points="8.5,-514 8.5,-531 123.5,-531 123.5,-514 8.5,-514"/>
<text text-anchor="start" x="11.5" y="-520" font-family="Lucida Sans,sans-serif" font-size="10.00">title</text>
<polygon fill="none" stroke="black" points="8.5,-497 8.5,-514 123.5,-514 123.5,-497 8.5,-497"/>
<text text-anchor="start" x="11.5" y="-503" font-family="Lucida Sans,sans-serif" font-size="10.00">url</text>
<polygon fill="none" stroke="black" points="8.5,-480 8.5,-497 123.5,-497 123.5,-480 8.5,-480"/>
<text text-anchor="start" x="11.5" y="-486" font-family="Lucida Sans,sans-serif" font-size="10.00">abbreviation</text>
<polygon fill="none" stroke="black" points="8.5,-463 8.5,-480 123.5,-480 123.5,-463 8.5,-463"/>
<text text-anchor="start" x="11.5" y="-469" font-family="Lucida Sans,sans-serif" font-size="10.00">provisional</text>
<polygon fill="none" stroke="black" points="8.5,-446 8.5,-463 123.5,-463 123.5,-446 8.5,-446"/>
<text text-anchor="start" x="11.5" y="-452" font-family="Lucida Sans,sans-serif" font-size="10.00">stage</text>
<polygon fill="none" stroke="black" points="8.5,-429 8.5,-446 123.5,-446 123.5,-429 8.5,-429"/>
<text text-anchor="start" x="11.5" y="-435" font-family="Lucida Sans,sans-serif" font-size="10.00">classification</text>
<polygon fill="none" stroke="black" points="8.5,-412 8.5,-429 123.5,-429 123.5,-412 8.5,-412"/>
<text text-anchor="start" x="11.5" y="-418" font-family="Lucida Sans,sans-serif" font-size="10.00">namemetaphone</text>
<polygon fill="none" stroke="black" points="8.5,-395 8.5,-412 123.5,-412 123.5,-395 8.5,-395"/>
<text text-anchor="start" x="11.5" y="-401" font-family="Lucida Sans,sans-serif" font-size="10.00">notation</text>
<polygon fill="none" stroke="black" points="8.5,-378 8.5,-395 123.5,-395 123.5,-378 8.5,-378"/>
<text text-anchor="start" x="11.5" y="-384" font-family="Lucida Sans,sans-serif" font-size="10.00">notationexpanded</text>
<polygon fill="none" stroke="black" points="8.5,-361 8.5,-378 123.5,-378 123.5,-361 8.5,-361"/>
<text text-anchor="start" x="11.5" y="-367" font-family="Lucida Sans,sans-serif" font-size="10.00">leadheadcode</text>
<polygon fill="none" stroke="black" points="8.5,-344 8.5,-361 123.5,-361 123.5,-344 8.5,-344"/>
<text text-anchor="start" x="11.5" y="-350" font-family="Lucida Sans,sans-serif" font-size="10.00">leadhead</text>
<polygon fill="none" stroke="black" points="8.5,-327 8.5,-344 123.5,-344 123.5,-327 8.5,-327"/>
<text text-anchor="start" x="11.5" y="-333" font-family="Lucida Sans,sans-serif" font-size="10.00">fchgroups</text>
<polygon fill="none" stroke="black" points="8.5,-310 8.5,-327 123.5,-327 123.5,-310 8.5,-310"/>
<text text-anchor="start" x="11.5" y="-316" font-family="Lucida Sans,sans-serif" font-size="10.00">lengthoflead</text>
<polygon fill="none" stroke="black" points="8.5,-293 8.5,-310 123.5,-310 123.5,-293 8.5,-293"/>
<text text-anchor="start" x="11.5" y="-299" font-family="Lucida Sans,sans-serif" font-size="10.00">lengthofcourse</text>
<polygon fill="none" stroke="black" points="8.5,-276 8.5,-293 123.5,-293 123.5,-276 8.5,-276"/>
<text text-anchor="start" x="11.5" y="-282" font-family="Lucida Sans,sans-serif" font-size="10.00">numberofleads</text>
<polygon fill="none" stroke="black" points="8.5,-259 8.5,-276 123.5,-276 123.5,-259 8.5,-259"/>
<text text-anchor="start" x="11.5" y="-265" font-family="Lucida Sans,sans-serif" font-size="10.00">numberofhunts</text>
<polygon fill="none" stroke="black" points="8.5,-242 8.5,-259 123.5,-259 123.5,-242 8.5,-242"/>
<text text-anchor="start" x="11.5" y="-248" font-family="Lucida Sans,sans-serif" font-size="10.00">jump</text>
<polygon fill="none" stroke="black" points="8.5,-225 8.5,-242 123.5,-242 123.5,-225 8.5,-225"/>
<text text-anchor="start" x="11.5" y="-231" font-family="Lucida Sans,sans-serif" font-size="10.00">little</text>
<polygon fill="none" stroke="black" points="8.5,-208 8.5,-225 123.5,-225 123.5,-208 8.5,-208"/>
<text text-anchor="start" x="11.5" y="-214" font-family="Lucida Sans,sans-serif" font-size="10.00">differential</text>
<polygon fill="none" stroke="black" points="8.5,-191 8.5,-208 123.5,-208 123.5,-191 8.5,-191"/>
<text text-anchor="start" x="11.5" y="-197" font-family="Lucida Sans,sans-serif" font-size="10.00">plain</text>
<polygon fill="none" stroke="black" points="8.5,-174 8.5,-191 123.5,-191 123.5,-174 8.5,-174"/>
<text text-anchor="start" x="11.5" y="-180" font-family="Lucida Sans,sans-serif" font-size="10.00">trebledodging</text>
<polygon fill="none" stroke="black" points="8.5,-157 8.5,-174 123.5,-174 123.5,-157 8.5,-157"/>
<text text-anchor="start" x="11.5" y="-163" font-family="Lucida Sans,sans-serif" font-size="10.00">palindromic</text>
<polygon fill="none" stroke="black" points="8.5,-140 8.5,-157 123.5,-157 123.5,-140 8.5,-140"/>
<text text-anchor="start" x="11.5" y="-146" font-family="Lucida Sans,sans-serif" font-size="10.00">doublesym</text>
<polygon fill="none" stroke="black" points="8.5,-123 8.5,-140 123.5,-140 123.5,-123 8.5,-123"/>
<text text-anchor="start" x="11.5" y="-129" font-family="Lucida Sans,sans-serif" font-size="10.00">rotational</text>
<polygon fill="none" stroke="black" points="8.5,-106 8.5,-123 123.5,-123 123.5,-106 8.5,-106"/>
<text text-anchor="start" x="11.5" y="-112" font-family="Lucida Sans,sans-serif" font-size="10.00">calls</text>
<polygon fill="none" stroke="black" points="8.5,-89 8.5,-106 123.5,-106 123.5,-89 8.5,-89"/>
<text text-anchor="start" x="11.5" y="-95" font-family="Lucida Sans,sans-serif" font-size="10.00">ruleoffs</text>
<polygon fill="none" stroke="black" points="8.5,-72 8.5,-89 123.5,-89 123.5,-72 8.5,-72"/>
<text text-anchor="start" x="11.5" y="-78" font-family="Lucida Sans,sans-serif" font-size="10.00">callingpositions</text>
<polygon fill="none" stroke="black" points="8.5,-55 8.5,-72 123.5,-72 123.5,-55 8.5,-55"/>
<text text-anchor="start" x="11.5" y="-61" font-family="Lucida Sans,sans-serif" font-size="10.00">magic</text>
<polygon fill="none" stroke="black" points="8.5,-38 8.5,-55 123.5,-55 123.5,-38 8.5,-38"/>
<text text-anchor="start" x="11.5" y="-44" font-family="Lucida Sans,sans-serif" font-size="10.00">cccbrid</text>
<polygon fill="none" stroke="black" points="8.5,-21 8.5,-38 123.5,-38 123.5,-21 8.5,-21"/>
<text text-anchor="start" x="11.5" y="-27" font-family="Lucida Sans,sans-serif" font-size="10.00">methodreferences</text>
<polygon fill="none" stroke="black" points="8.5,-4 8.5,-21 123.5,-21 123.5,-4 8.5,-4"/>
<text text-anchor="start" x="11.5" y="-10" font-family="Lucida Sans,sans-serif" font-size="10.00">extensionconstruction</text>
</a>
</g>
</g>
<!-- methods_collections -->
<g id="node3" class="node">
<title>methods_collections</title>
<g id="a_node3"><a xlink:href="tables/methods_collections.html" xlink:title="methods_collections">
<polygon fill="#ffffff" stroke="transparent" points="172,-578.5 172,-663.5 293,-663.5 293,-578.5 172,-578.5"/>
<polygon fill="#002856" stroke="transparent" points="172.5,-646 172.5,-663 293.5,-663 293.5,-646 172.5,-646"/>
<polygon fill="none" stroke="black" points="172.5,-646 172.5,-663 293.5,-663 293.5,-646 172.5,-646"/>
<text text-anchor="start" x="175.5" y="-653" font-family="Lucida Sans,sans-serif" font-weight="bold" font-size="10.00" fill="#e0ded9">methods_collections</text>
<polygon fill="#f3f3f3" stroke="transparent" points="172.5,-629 172.5,-646 293.5,-646 293.5,-629 172.5,-629"/>
<polygon fill="none" stroke="black" points="172.5,-629 172.5,-646 293.5,-646 293.5,-629 172.5,-629"/>
<text text-anchor="start" x="175.5" y="-635" font-family="Lucida Sans,sans-serif" font-size="10.00">id</text>
<polygon fill="#f3f3f3" stroke="transparent" points="172.5,-612 172.5,-629 293.5,-629 293.5,-612 172.5,-612"/>
<polygon fill="none" stroke="black" points="172.5,-612 172.5,-629 293.5,-629 293.5,-612 172.5,-612"/>
<text text-anchor="start" x="175.5" y="-618" font-family="Lucida Sans,sans-serif" font-size="10.00">collection_id</text>
<polygon fill="#f3f3f3" stroke="transparent" points="172.5,-595 172.5,-612 293.5,-612 293.5,-595 172.5,-595"/>
<polygon fill="none" stroke="black" points="172.5,-595 172.5,-612 293.5,-612 293.5,-595 172.5,-595"/>
<text text-anchor="start" x="175.5" y="-601" font-family="Lucida Sans,sans-serif" font-size="10.00">method_title</text>
<polygon fill="none" stroke="black" points="172.5,-578 172.5,-595 293.5,-595 293.5,-578 172.5,-578"/>
<text text-anchor="start" x="175.5" y="-584" font-family="Lucida Sans,sans-serif" font-size="10.00">position</text>
</a>
</g>
</g>
<!-- methods_collections&#45;&gt;collections -->
<g id="edge1" class="edge">
<title>methods_collections:w&#45;&gt;collections:e</title>
<path fill="none" stroke="black" d="M157.09,-620C136.53,-620 126.63,-620 100.5,-620"/>
<polygon fill="black" stroke="black" points="163.5,-620 171.5,-623.6 167.5,-620 171.5,-620 171.5,-620 171.5,-620 167.5,-620 171.5,-616.4 163.5,-620 163.5,-620"/>
<ellipse fill="none" stroke="black" cx="160.3" cy="-620" rx="3.2" ry="3.2"/>
</g>
<!-- methods_collections&#45;&gt;methods -->
<g id="edge2" class="edge">
<title>methods_collections:w&#45;&gt;methods:e</title>
<path fill="none" stroke="black" d="M157.71,-598.24C139.1,-581.01 159.62,-523 124.5,-523"/>
<polygon fill="black" stroke="black" points="163.94,-600.39 170.32,-606.4 167.72,-601.69 171.5,-603 171.5,-603 171.5,-603 167.72,-601.69 172.68,-599.6 163.94,-600.39 163.94,-600.39"/>
<ellipse fill="none" stroke="black" cx="160.91" cy="-599.34" rx="3.2" ry="3.2"/>
</g>
<!-- performances -->
<g id="node4" class="node">
<title>performances</title>
<g id="a_node4"><a xlink:href="tables/performances.html" xlink:title="performances">
<polygon fill="#ffffff" stroke="transparent" points="187.5,-285 187.5,-557 277.5,-557 277.5,-285 187.5,-285"/>
<polygon fill="#002856" stroke="transparent" points="187.5,-540 187.5,-557 277.5,-557 277.5,-540 187.5,-540"/>
<polygon fill="none" stroke="black" points="187.5,-540 187.5,-557 277.5,-557 277.5,-540 187.5,-540"/>
<text text-anchor="start" x="193" y="-547" font-family="Lucida Sans,sans-serif" font-weight="bold" font-size="10.00" fill="#e0ded9">performances</text>
<polygon fill="#f3f3f3" stroke="transparent" points="187.5,-523 187.5,-540 277.5,-540 277.5,-523 187.5,-523"/>
<polygon fill="none" stroke="black" points="187.5,-523 187.5,-540 277.5,-540 277.5,-523 187.5,-523"/>
<text text-anchor="start" x="190.5" y="-529" font-family="Lucida Sans,sans-serif" font-size="10.00">id</text>
<polygon fill="#f3f3f3" stroke="transparent" points="187.5,-506 187.5,-523 277.5,-523 277.5,-506 187.5,-506"/>
<polygon fill="none" stroke="black" points="187.5,-506 187.5,-523 277.5,-523 277.5,-506 187.5,-506"/>
<text text-anchor="start" x="190.5" y="-512" font-family="Lucida Sans,sans-serif" font-size="10.00">method_title</text>
<polygon fill="none" stroke="black" points="187.5,-489 187.5,-506 277.5,-506 277.5,-489 187.5,-489"/>
<text text-anchor="start" x="190.5" y="-495" font-family="Lucida Sans,sans-serif" font-size="10.00">type</text>
<polygon fill="none" stroke="black" points="187.5,-472 187.5,-489 277.5,-489 277.5,-472 187.5,-472"/>
<text text-anchor="start" x="190.5" y="-478" font-family="Lucida Sans,sans-serif" font-size="10.00">date</text>
<polygon fill="none" stroke="black" points="187.5,-455 187.5,-472 277.5,-472 277.5,-455 187.5,-455"/>
<text text-anchor="start" x="190.5" y="-461" font-family="Lucida Sans,sans-serif" font-size="10.00">society</text>
<polygon fill="none" stroke="black" points="187.5,-438 187.5,-455 277.5,-455 277.5,-438 187.5,-438"/>
<text text-anchor="start" x="190.5" y="-444" font-family="Lucida Sans,sans-serif" font-size="10.00">rung_title</text>
<polygon fill="none" stroke="black" points="187.5,-421 187.5,-438 277.5,-438 277.5,-421 187.5,-421"/>
<text text-anchor="start" x="190.5" y="-427" font-family="Lucida Sans,sans-serif" font-size="10.00">rung_url</text>
<polygon fill="none" stroke="black" points="187.5,-404 187.5,-421 277.5,-421 277.5,-404 187.5,-404"/>
<text text-anchor="start" x="190.5" y="-410" font-family="Lucida Sans,sans-serif" font-size="10.00">reference</text>
<polygon fill="none" stroke="black" points="187.5,-387 187.5,-404 277.5,-404 277.5,-387 187.5,-387"/>
<text text-anchor="start" x="190.5" y="-393" font-family="Lucida Sans,sans-serif" font-size="10.00">location_room</text>
<polygon fill="none" stroke="black" points="187.5,-370 187.5,-387 277.5,-387 277.5,-370 187.5,-370"/>
<text text-anchor="start" x="190.5" y="-376" font-family="Lucida Sans,sans-serif" font-size="10.00">location_building</text>
<polygon fill="none" stroke="black" points="187.5,-353 187.5,-370 277.5,-370 277.5,-353 187.5,-353"/>
<text text-anchor="start" x="190.5" y="-359" font-family="Lucida Sans,sans-serif" font-size="10.00">location_address</text>
<polygon fill="none" stroke="black" points="187.5,-336 187.5,-353 277.5,-353 277.5,-336 187.5,-336"/>
<text text-anchor="start" x="190.5" y="-342" font-family="Lucida Sans,sans-serif" font-size="10.00">location_town</text>
<polygon fill="none" stroke="black" points="187.5,-319 187.5,-336 277.5,-336 277.5,-319 187.5,-319"/>
<text text-anchor="start" x="190.5" y="-325" font-family="Lucida Sans,sans-serif" font-size="10.00">location_county</text>
<polygon fill="none" stroke="black" points="187.5,-302 187.5,-319 277.5,-319 277.5,-302 187.5,-302"/>
<text text-anchor="start" x="190.5" y="-308" font-family="Lucida Sans,sans-serif" font-size="10.00">location_region</text>
<polygon fill="none" stroke="black" points="187.5,-285 187.5,-302 277.5,-302 277.5,-285 187.5,-285"/>
<text text-anchor="start" x="190.5" y="-291" font-family="Lucida Sans,sans-serif" font-size="10.00">location_country</text>
</a>
</g>
</g>
<!-- performances&#45;&gt;methods -->
<g id="edge3" class="edge">
<title>performances:w&#45;&gt;methods:e</title>
<path fill="none" stroke="black" d="M171.85,-515.86C155.22,-517.92 146.64,-523 124.5,-523"/>
<polygon fill="black" stroke="black" points="178.51,-515.47 186.71,-518.59 182.51,-515.23 186.5,-515 186.5,-515 186.5,-515 182.51,-515.23 186.29,-511.41 178.51,-515.47 178.51,-515.47"/>
<ellipse fill="none" stroke="black" cx="175.32" cy="-515.65" rx="3.2" ry="3.2"/>
</g>
</g>
</svg>
